<svg width="100%" viewBox="0 0 680 200" role="img" xmlns="http://www.w3.org/2000/svg">
<title>Malik Akiev | Electrical Engineering | Software | Robotics</title>
<desc>Dark minimal banner with the name, tagline, and a subtle control-system step-response curve.</desc>
<defs>
<linearGradient id="bg" x1="0" y1="0" x2="1" y2="1">
<stop offset="0" stop-color="#0d1117"/>
<stop offset="1" stop-color="#0a2230"/>
</linearGradient>
</defs>
<rect x="0" y="0" width="680" height="200" rx="10" fill="url(#bg)"/>
<g stroke="#ffffff" stroke-width="0.5" opacity="0.05">
<line x1="40" y1="0" x2="40" y2="200"/><line x1="120" y1="0" x2="120" y2="200"/><line x1="200" y1="0" x2="200" y2="200"/><line x1="280" y1="0" x2="280" y2="200"/><line x1="360" y1="0" x2="360" y2="200"/><line x1="440" y1="0" x2="440" y2="200"/><line x1="520" y1="0" x2="520" y2="200"/><line x1="600" y1="0" x2="600" y2="200"/>
<line x1="0" y1="50" x2="680" y2="50"/><line x1="0" y1="100" x2="680" y2="100"/><line x1="0" y1="150" x2="680" y2="150"/>
</g>
<line x1="420" y1="96" x2="656" y2="96" stroke="#2dd4bf" stroke-width="1" stroke-dasharray="4 4" opacity="0.5"/>
<path d="M360,150 L430,150 C448,150 456,150 472,68 C488,80 502,120 522,113 C540,107 546,86 566,90 C588,94 612,96 656,96" fill="none" stroke="#38bdf8" stroke-width="2.5" opacity="0.85" stroke-linecap="round"/>
<circle cx="656" cy="96" r="3.5" fill="#38bdf8"/>
<rect x="36" y="56" width="3" height="92" rx="1.5" fill="#38bdf8"/>
<text x="54" y="92" fill="#f0f6fc" font-family="-apple-system, Segoe UI, Roboto, sans-serif" font-size="34" font-weight="500">Malik Akiev</text>
<text x="55" y="120" fill="#8b949e" font-family="-apple-system, Segoe UI, Roboto, sans-serif" font-size="16">Electrical Engineering | Software | Robotics</text>
<text x="55" y="145" fill="#38bdf8" font-family="-apple-system, Segoe UI, Roboto, sans-serif" font-size="13">github.com/aakiev</text>
</svg>
